#!OML:ASF I:\Actors\actors\Patient Classification 1\Patient 1\Session 1\Subject1.ASF
:FULLY-SPECIFIED
:DEGREES
1075
root -0.139995 17.6389 7.92107 8.17804 3.92443 -10.322
lowerback 4.83693 3.16841 5.45031
upperback 0.159175 4.548 1.04602
thorax -2.20625 2.21509 -2.25577
lowerneck -10.6733 -3.03221 0.958802
upperneck 23.6486 -6.13756 7.1173
head 9.42414 -1.99735 1.60009
rclavicle 6.75868e-015 -4.77083e-015
rhumerus 24.32 31.5252 -58.8177
rradius 107.895
rwrist 45.0857
rhand -11.0925 -36.3153
rfingers 7.12502
rthumb 14.9314 -1145.76
lclavicle 6.75868e-015 -4.77083e-015
lhumerus 5.74557 -27.5395 86.7071
lradius 113.2
lwrist 28.8556
lhand -1.62218 17.8323
lfingers 7.12502
lthumb 24.0357 406.347
rfemur -8.60625 13.8717 26.5916
rtibia 9.53776
rfoot -14.0613 -19.7905
rtoes 1.19632
lfemur -4.34146 -33.4897 -3.09254
ltibia -0.19109
lfoot -9.5735 40.1601
ltoes -4.30853
1076
root -0.139521 17.64 7.91816 8.16095 4.04625 -10.4313
lowerback 4.7605 3.09954 5.54706
upperback 0.214626 4.45579 1.12178
thorax -2.11199 2.17213 -2.21947
lowerneck -10.7687 -3.01835 0.952577
upperneck 23.7012 -6.08688 6.96076
head 9.45282 -1.98714 1.55188
rclavicle 5.96354e-016 -4.6118e-014
rhumerus 25.5753 31.0798 -56.5627
rradius 108.749
rwrist 44.0472
rhand -6.56404 -38.3391
rfingers 7.12502
rthumb 19.2901 -1147.4
lclavicle 5.96354e-016 -4.6118e-014
lhumerus 6.45574 -27.0107 85.8611
lradius 113.488
lwrist 22.5203
lhand 4.2782 17.5203
lfingers 7.12502
lthumb 29.6813 405.165
rfemur -8.62448 13.7727 26.7238
rtibia 9.59213
rfoot -14.1289 -19.765
rtoes 1.39264
lfemur -4.39365 -33.4937 -2.92631
ltibia -0.211202
lfoot -9.40507 40.0986
ltoes -4.73946
1077
root -0.141482 17.6405 7.91379 8.10193 4.10707 -10.4963
lowerback 4.93071 3.08619 5.67942
upperback 0.154618 4.45956 1.10606
thorax -2.25797 2.16719 -2.32215
lowerneck -10.7761 -3.04737 0.881583
upperneck 23.8506 -6.13054 6.98269
head 9.51128 -2.00554 1.56748
rclavicle 2.38542e-014 1.59028e-015
rhumerus 26.4355 30.6322 -54.7372
rradius 109.231
rwrist 41.8192
rhand -1.3305 -40.2848
rfingers 7.12502
rthumb 24.3154 -1148.76
lclavicle 2.38542e-014 1.59028e-015
lhumerus 6.9556 -26.879 85.0714
lradius 113.817
lwrist 15.531
lhand 8.14533 16.6439
lfingers 7.12502
lthumb 33.3652 403.566
rfemur -8.61644 13.7508 26.8186
rtibia 9.65232
rfoot -14.1799 -19.7807
rtoes 1.43215
lfemur -4.35513 -33.639 -2.87275
ltibia -0.20142
lfoot -9.43297 40.178
ltoes -4.65588
1078
root -0.145344 17.6409 7.90872 8.03426 4.10398 -10.5657
lowerback 5.25454 3.1518 5.9242
upperback -0.0124101 4.58715 0.930834
thorax -2.56908 2.21421 -2.67218
lowerneck -10.7198 -3.12431 0.991871
upperneck 24.0831 -6.32343 7.16828
head 9.59546 -2.05711 1.59368
rclavicle -7.09661e-014 -7.15625e-015
rhumerus 26.8142 30.3099 -53.4501
rradius 109.35
rwrist 38.5972
rhand 2.97721 -41.967
rfingers 7.12502
rthumb 28.4388 -1149.83
lclavicle -7.09661e-014 -7.15625e-015
lhumerus 7.36942 -26.9964 84.4208
lradius 114.335
lwrist 9.08491
lhand 11.0149 17.2541
lfingers 7.12502
lthumb 36.0883 403.549
rfemur -8.6027 13.7781 26.9242
rtibia 9.71895
rfoot -14.2043 -19.7976
rtoes 1.48588
lfemur -4.27323 -33.751 -2.82552
ltibia -0.207015
lfoot -9.59048 40.2782
ltoes -4.22556
1079
root -0.148276 17.6411 7.90424 8.01181 4.09843 -10.5985
lowerback 5.29685 3.15803 5.9606
upperback -0.0570056 4.59982 0.832441
thorax -2.62701 2.21682 -2.79881
lowerneck -10.6999 -3.11675 1.16786
upperneck 24.2361 -6.39278 7.29431
head 9.64994 -2.05411 1.60136
rclavicle 3.91606e-014 5.64548e-014
rhumerus 27.3403 30.3381 -52.3501
rradius 109.398
rwrist 34.972
rhand 6.27681 -43.0901
rfingers 7.12502
rthumb 31.587 -1150.38
lclavicle 3.91606e-014 5.64548e-014
lhumerus 8.01449 -26.4514 84.1159
lradius 114.742
lwrist 3.59748
lhand 18.3982 17.244
lfingers 7.12502
lthumb 43.0401 401.476
rfemur -8.63761 13.7189 26.9672
rtibia 9.79355
rfoot -14.2069 -19.7097
rtoes 1.81083
lfemur -4.25142 -33.7506 -2.78997
ltibia -0.218934
lfoot -9.64242 40.2918
ltoes -4.08843
1080
root -0.150777 17.641 7.90026 7.9935 4.10775 -10.551
lowerback 4.9239 3.02182 5.51385
upperback 0.179794 4.36064 1.01345
thorax -2.2408 2.12031 -2.31916
lowerneck -10.8544 -2.96638 1.15487
upperneck 24.2582 -6.16584 7.20022
head 9.67512 -1.95676 1.59513
rclavicle -5.88403e-014 -2.38542e-014
rhumerus 28.3728 30.6476 -51.3177
rradius 109.606
rwrist 31.2157
rhand 8.83174 -43.5826
rfingers 7.12502
rthumb 34.0175 -1150.36
lclavicle -5.88403e-014 -2.38542e-014
lhumerus 9.00502 -24.8503 84.3237
lradius 114.819
lwrist -0.206598
lhand 26.8331 16.4014
lfingers 7.12502
lthumb 50.8386 397.172
rfemur -8.66025 13.6085 26.9128
rtibia 9.83467
rfoot -14.1914 -19.5938
rtoes 2.0133
lfemur -4.22924 -33.8379 -2.86963
ltibia -0.210509
lfoot -9.60664 40.3693
ltoes -4.28011
1081
root -0.154172 17.6412 7.89561 7.95642 4.17421 -10.5313
lowerback 5.45981 3.10593 5.93241
upperback -0.174036 4.53943 0.629125
thorax -2.83084 2.17707 -3.0046
lowerneck -10.6795 -3.12317 1.23898
upperneck 24.4901 -6.50785 7.56929
head 9.75162 -2.06144 1.67437
rclavicle -1.72943e-014 1.35174e-014
rhumerus 27.4089 30.8675 -51.938
rradius 110.492
rwrist 26.7654
rhand 10.6057 -45.6887
rfingers 7.12502
rthumb 35.7006 -1152.08
lclavicle -1.72943e-014 1.35174e-014
lhumerus 9.4731 -23.7003 84.866
lradius 115.398
lwrist 2.24347
lhand 39.0534 18.1996
lfingers 7.12502
lthumb 61.6059 390.176
rfemur -8.64261 13.5076 26.9035
rtibia 9.8265
rfoot -14.1713 -19.5666
rtoes 1.92451
lfemur -4.24934 -33.9289 -2.89316
ltibia -0.157348
lfoot -9.6109 40.3891
ltoes -4.34578
1082
root -0.158708 17.6414 7.89088 7.88588 4.28808 -10.5775
lowerback 5.52483 3.0119 5.83415
upperback -0.152035 4.41274 0.66225
thorax -2.86608 2.11495 -2.91171
lowerneck -10.7668 -3.04804 1.3567
upperneck 24.5287 -6.42005 7.51029
head 9.77344 -2.0131 1.64325
rclavicle -5.18828e-014 -1.19271e-014
rhumerus 27.3621 31.2208 -52.3684
rradius 111.519
rwrist 20.7177
rhand 12.529 -47.8892
rfingers 7.12502
rthumb 37.5208 -1153.82
lclavicle -5.18828e-014 -1.19271e-014
lhumerus 10.2091 -21.7407 85.6458
lradius 115.689
lwrist 6.72889
lhand 49.3002 19.4521
lfingers 7.12502
lthumb 69.487 376.757
rfemur -8.58574 13.3925 26.9868
rtibia 9.82338
rfoot -14.1789 -19.5772
rtoes 1.82378
lfemur -4.26819 -33.9223 -2.81957
ltibia -0.122794
lfoot -9.53143 40.2743
ltoes -4.48902
1083
root -0.164587 17.6411 7.88722 7.78225 4.3926 -10.6476
lowerback 5.06187 2.76609 5.21368
upperback 0.289406 4.00969 1.07154
thorax -2.25665 1.95027 -2.07864
lowerneck -11.1494 -2.76123 1.54245
upperneck 24.3254 -5.93163 7.00449
head 9.73078 -1.82604 1.48543
rclavicle 2.60408e-014 6.36111e-015
rhumerus 28.3539 31.8034 -52.3838
rradius 112.652
rwrist 12.2412
rhand 13.9652 -51.2033
rfingers 7.12502
rthumb 38.8767 -1156.76
lclavicle 2.60408e-014 6.36111e-015
lhumerus 11.2563 -19.0237 86.61
lradius 115.523
lwrist 12.8291
lhand 56.5166 17.9647
lfingers 7.12502
lthumb 73.4964 357.14
rfemur -8.49794 13.2911 27.1133
rtibia 9.84448
rfoot -14.1827 -19.6005
rtoes 1.66511
lfemur -4.18869 -33.9795 -2.75057
ltibia -0.171841
lfoot -9.38205 40.2368
ltoes -4.68012
